<svg version="1.0" xmlns="http://www.w3.org/2000/svg"
 width="100.000000pt" height="100.000000pt" viewBox="0 0 100.000000 100.000000"
 preserveAspectRatio="xMidYMid meet">

<g transform="translate(0.000000,100.000000) scale(0.100000,-0.100000)"
fill="#461413" stroke="none">
<path d="M353 828 c-62 -68 -150 -163 -197 -213 -47 -49 -85 -98 -86 -109 0
-20 75 -106 276 -314 101 -104 133 -132 147 -126 33 12 407 416 407 438 -1 12
-35 58 -81 106 -44 47 -133 142 -197 213 -76 82 -124 127 -137 127 -13 0 -60
-43 -132 -122z m239 -94 c53 -81 94 -152 92 -158 -6 -15 -171 -86 -199 -86
-11 0 -59 17 -107 37 -64 27 -88 42 -88 55 0 22 181 298 195 298 6 0 54 -66
107 -146z m-198 64 c-4 -7 -38 -59 -76 -116 -60 -89 -75 -105 -120 -127 -28
-14 -53 -24 -54 -22 -3 2 248 277 253 277 2 0 1 -6 -3 -12z m365 -187 c40 -45
71 -81 69 -81 -2 0 -27 11 -56 25 -45 22 -60 38 -120 127 -38 57 -72 110 -76
118 -8 16 56 -50 183 -189z m-395 -105 c43 -18 84 -40 92 -48 12 -11 14 -46
12 -177 l-3 -163 -168 180 c-93 99 -169 184 -170 189 -2 14 86 52 124 52 20 1
70 -14 113 -33z m429 14 c26 -11 48 -24 51 -29 4 -6 -76 -95 -291 -321 l-53
-55 0 166 c0 192 -7 177 109 226 89 38 122 40 184 13z"/>
<path d="M453 770 c-32 -13 -43 -41 -43 -108 0 -73 21 -105 68 -105 54 0 72
26 72 103 0 50 -5 73 -17 88 -22 25 -51 33 -80 22z m45 -32 c16 -20 23 -79 14
-118 -18 -81 -81 -26 -69 61 8 58 32 84 55 57z"/>
<path d="M272 448 c-20 -20 -14 -55 12 -76 17 -13 23 -26 20 -39 -11 -42 69
-78 117 -53 25 14 25 40 -1 40 -11 0 -20 -7 -20 -15 0 -18 -31 -20 -48 -3 -18
18 -15 36 8 43 28 9 25 25 -5 25 -35 0 -70 36 -54 56 17 20 33 18 67 -11 22
-18 33 -22 38 -14 4 8 -4 22 -22 36 -32 25 -92 31 -112 11z"/>
<path d="M643 463 c-7 -3 -22 -26 -33 -51 -12 -26 -37 -64 -57 -84 -42 -43
-35 -51 42 -46 63 4 74 28 14 28 l-42 0 20 23 c57 63 91 142 56 130z"/>
</g>
</svg>
