<svg version="1.0" xmlns="http://www.w3.org/2000/svg"
 width="100.000000pt" height="100.000000pt" viewBox="0 0 100.000000 100.000000"
 preserveAspectRatio="xMidYMid meet">

<g transform="translate(0.000000,100.000000) scale(0.100000,-0.100000)"
fill="#461413" stroke="none">
<path d="M335 890 l-120 -47 -62 -96 -61 -95 -7 -135 -8 -136 73 -93 c40 -51
80 -99 88 -105 8 -7 69 -33 134 -59 l119 -46 64 26 c36 14 94 37 128 51 49 20
71 36 95 68 16 23 51 69 76 102 l47 60 -7 134 -7 135 -62 95 c-61 94 -64 96
-126 119 -35 13 -90 34 -122 48 -32 13 -73 24 -90 23 -18 -1 -86 -22 -152 -49z
m143 -50 c5 -82 -2 -95 -84 -155 -108 -80 -113 -82 -184 -60 -34 10 -63 22
-66 27 -3 4 19 43 48 85 l53 77 105 42 c58 23 110 41 115 40 6 -2 11 -27 13
-56z m128 25 c49 -20 100 -41 112 -48 25 -12 112 -138 112 -161 0 -8 -25 -21
-64 -31 -52 -14 -67 -15 -87 -5 -44 23 -159 112 -169 130 -16 30 -12 150 5
150 0 0 41 -16 91 -35z m-26 -206 c47 -33 89 -67 93 -75 11 -19 -49 -204 -71
-221 -22 -18 -202 -18 -225 0 -14 11 -77 184 -77 213 0 11 175 144 189 144 3
0 44 -27 91 -61z m-366 -59 c49 -19 56 -26 70 -63 42 -115 57 -170 52 -191 -7
-28 -75 -118 -86 -114 -5 2 -36 39 -69 83 l-61 79 0 106 c0 59 3 110 7 113 10
11 29 8 87 -13z m640 4 c3 -9 6 -59 6 -111 l0 -96 -49 -66 c-28 -37 -59 -75
-69 -85 -20 -17 -21 -16 -61 37 -23 29 -41 64 -41 76 0 23 42 158 62 198 7 14
32 31 62 42 63 25 82 26 90 5z m-199 -331 c34 -45 42 -60 32 -69 -22 -20 -166
-74 -197 -74 -32 0 -210 68 -210 81 0 4 20 32 46 63 l45 56 119 0 120 0 45
-57z"/>
<path d="M372 828 c-7 -7 -12 -34 -12 -60 l0 -48 44 33 c45 32 66 62 24 33
-33 -24 -40 -20 -32 19 6 36 -3 44 -24 23z"/>
<path d="M278 798 c-9 -8 -19 -36 -23 -66 -7 -51 -6 -53 11 -43 27 15 90 71
81 71 -4 0 -19 -8 -34 -17 l-25 -17 7 42 c7 46 6 48 -17 30z"/>
<path d="M620 790 c-33 -33 -24 -72 21 -95 51 -27 86 10 48 52 -13 12 -29 23
-36 23 -8 0 -11 5 -8 10 11 18 42 11 58 -12 8 -13 19 -19 23 -15 12 11 -42 57
-67 57 -10 0 -28 -9 -39 -20z m50 -46 c11 -12 11 -18 -1 -30 -20 -19 -53 3
-43 29 8 21 27 22 44 1z"/>
<path d="M402 571 c-32 -27 -33 -50 -2 -30 24 14 25 12 25 -48 0 -36 4 -58 13
-60 9 -4 12 17 12 81 0 47 -3 86 -7 86 -5 -1 -23 -14 -41 -29z"/>
<path d="M487 582 c-10 -10 -17 -24 -17 -30 0 -20 28 -13 35 9 5 14 14 19 28
17 37 -5 30 -33 -19 -80 -26 -26 -44 -51 -40 -57 4 -6 32 -11 62 -11 41 0 54
4 54 15 0 11 -11 15 -40 15 l-41 0 35 31 c41 36 51 61 36 89 -14 26 -70 27
-93 2z"/>
<path d="M187 534 c14 -22 15 -27 2 -34 -42 -25 -54 -39 -42 -51 9 -9 22 -5
57 17 25 16 46 32 46 35 0 7 -65 59 -75 59 -3 0 2 -12 12 -26z"/>
<path d="M200 430 c-25 -25 -25 -46 0 -87 34 -56 100 -34 100 33 0 65 -58 96
-100 54z m80 -25 c11 -13 9 -20 -10 -40 -29 -31 -56 -32 -66 -3 -5 16 -1 27
16 40 27 22 44 23 60 3z"/>
<path d="M700 469 c0 -6 11 -20 25 -31 14 -11 32 -33 41 -50 8 -16 17 -28 19
-26 12 11 43 108 35 108 -6 0 -16 -14 -23 -31 l-13 -32 -27 37 c-27 35 -57 48
-57 25z"/>
<path d="M448 289 c-21 -11 -23 -40 -6 -57 8 -8 8 -15 -3 -28 -12 -14 -10 -19
10 -35 26 -22 44 -24 72 -9 20 11 27 50 7 50 -6 0 -4 7 5 18 22 24 21 35 -1
55 -21 19 -58 22 -84 6z m67 -34 c0 -22 -31 -33 -47 -17 -17 17 -1 44 24 40
15 -2 23 -10 23 -23z m-5 -65 c0 -13 -7 -20 -19 -20 -22 0 -35 15 -26 30 12
19 45 11 45 -10z"/>
</g>
</svg>
