<svg version="1.0" xmlns="http://www.w3.org/2000/svg"
 width="100.000000pt" height="100.000000pt" viewBox="0 0 100.000000 100.000000"
 preserveAspectRatio="xMidYMid meet">

<g transform="translate(0.000000,100.000000) scale(0.100000,-0.100000)"
fill="rgb(180, 179, 179)" stroke="none">
<path d="M331 825 c-100 -75 -182 -141 -182 -148 -3 -35 3 -384 7 -399 7 -23
337 -228 366 -227 13 0 100 49 193 108 l170 107 8 198 c5 109 6 204 3 211 -5
14 -363 285 -376 285 -5 0 -90 -61 -189 -135z m179 16 c0 -37 -5 -63 -14 -70
-12 -10 -55 -22 -215 -61 -24 -6 -45 -9 -48 -7 -2 2 21 23 52 46 56 43 63 44
45 10 -7 -12 -7 -19 -1 -19 6 0 18 16 27 36 17 36 132 136 146 127 5 -2 8 -30
8 -62z m165 -32 c75 -56 134 -104 131 -106 -2 -3 -29 1 -60 9 -37 8 -56 18
-57 28 -1 8 -2 17 -2 20 -1 3 -23 28 -49 55 l-48 50 0 -43 c0 -39 2 -43 29
-48 17 -4 38 -15 48 -27 18 -20 17 -20 -7 -13 -14 4 -41 9 -60 13 -58 10 -70
27 -70 100 0 34 2 63 5 63 3 0 66 -46 140 -101z m-37 -25 c-10 -10 -28 6 -28
24 0 15 1 15 17 -1 9 -9 14 -19 11 -23z m-170 -91 c-70 -115 -171 -254 -178
-247 -5 5 -27 54 -50 108 -30 71 -38 102 -30 110 10 10 271 75 278 70 2 -2 -7
-20 -20 -41z m350 -24 c30 -12 28 -24 -18 -124 -22 -47 -40 -90 -40 -96 0 -28
-29 5 -110 126 -50 75 -93 142 -96 149 -4 10 29 5 118 -16 68 -16 133 -34 146
-39z m-190 -99 c50 -77 92 -144 92 -150 0 -6 -73 -10 -201 -10 -158 0 -200 3
-197 13 8 31 184 287 198 287 8 0 57 -63 108 -140z m-394 -58 c20 -46 36 -89
36 -96 0 -15 -61 -96 -72 -96 -4 0 -8 23 -8 52 l0 51 23 -19 c12 -10 17 -12
10 -5 -10 11 -9 17 5 28 15 13 15 14 -9 10 -23 -3 -25 -1 -26 35 -1 39 6 46
11 12 2 -10 9 -20 16 -22 9 -3 7 6 -7 29 -21 37 -42 132 -24 114 5 -5 26 -48
45 -93z m626 48 c0 -36 -4 -50 -14 -50 -7 0 -21 -11 -30 -25 -17 -25 -22 -65
-8 -65 12 0 32 22 32 34 0 6 -4 4 -10 -4 -11 -18 -25 -6 -16 15 7 20 43 15 37
-6 -2 -8 -3 -43 -2 -79 l2 -65 -31 30 c-50 47 -54 67 -24 138 15 34 33 77 41
95 7 17 15 32 18 32 3 0 5 -22 5 -50z m-144 -187 c-10 -24 -188 -273 -196
-273 -9 0 -200 268 -200 280 0 6 77 10 201 10 184 0 201 -1 195 -17z m-365
-87 c23 -33 62 -87 85 -118 24 -32 40 -58 36 -58 -4 1 -35 18 -70 39 -53 33
-60 40 -47 51 22 18 8 31 -20 18 -20 -9 -31 -6 -72 19 -26 16 -48 37 -48 45 0
9 15 32 33 53 40 43 42 41 103 -49z m455 42 c39 -43 38 -45 -41 -97 -66 -44
-80 -47 -77 -20 1 4 -8 5 -18 2 -11 -3 -20 -10 -20 -15 0 -6 7 -8 14 -5 10 4
13 1 9 -9 -6 -15 -94 -76 -101 -69 -3 3 54 86 140 203 42 57 52 58 94 10z"/>
<path d="M456 835 c4 -9 -1 -18 -10 -21 -22 -9 -34 5 -16 16 8 6 10 10 4 10
-6 0 -19 -9 -29 -20 -10 -11 -14 -20 -9 -20 5 0 -2 -7 -14 -16 -30 -21 -28
-34 6 -34 21 0 24 2 12 10 -13 9 -12 12 4 25 32 24 51 14 24 -13 -7 -7 -8 -12
-2 -12 16 0 45 35 37 44 -4 4 0 12 10 17 19 11 14 29 -8 29 -9 0 -12 -6 -9
-15z"/>
<path d="M262 648 c-15 -15 -16 -58 -1 -58 6 0 8 7 5 16 -4 9 -1 23 5 30 19
22 39 -3 39 -47 0 -22 4 -39 9 -39 13 0 55 60 47 67 -4 4 -14 -4 -24 -18 l-17
-24 -5 40 c-4 30 -10 41 -25 43 -11 1 -26 -3 -33 -10z"/>
<path d="M690 680 c0 -5 6 -11 13 -13 8 -3 1 -14 -18 -30 -16 -14 -27 -29 -23
-33 8 -7 88 43 88 55 0 4 -13 12 -30 18 -16 6 -30 8 -30 3z"/>
<path d="M700 597 c0 -9 5 -19 10 -22 6 -4 8 -15 5 -25 -4 -12 1 -19 15 -23
11 -3 20 0 20 6 0 6 12 21 28 33 33 27 27 35 -33 41 -36 5 -45 3 -45 -10z m55
-23 c-15 -11 -20 -11 -27 -1 -13 20 -9 24 19 19 25 -5 25 -6 8 -18z"/>
<path d="M431 561 c-6 -11 -7 -22 -2 -25 5 -3 11 1 15 9 7 18 46 20 46 2 0 -7
-16 -28 -35 -47 -19 -19 -35 -38 -35 -42 0 -4 23 -8 51 -8 31 0 48 4 44 10 -3
6 -18 10 -32 10 l-27 0 28 29 c38 39 33 75 -11 79 -23 2 -34 -2 -42 -17z"/>
<path d="M537 573 c-13 -22 -17 -73 -8 -96 11 -29 47 -37 69 -15 16 16 16 90
0 106 -13 13 -54 16 -61 5z m51 -60 c-2 -35 -7 -48 -18 -48 -11 0 -16 13 -18
48 -3 42 -1 47 18 47 19 0 21 -5 18 -47z"/>
<path d="M481 316 c-8 -10 -10 -23 -5 -33 4 -10 8 -31 8 -48 1 -23 6 -31 24
-33 37 -6 50 13 48 71 -1 50 -2 52 -32 55 -19 2 -36 -3 -43 -12z m57 -19 c4
-21 -25 -34 -40 -19 -8 8 -8 16 2 27 16 19 34 15 38 -8z m-3 -67 c0 -22 -29
-18 -33 3 -3 14 1 18 15 15 10 -2 18 -10 18 -18z"/>
<path d="M270 282 c0 -24 28 -62 46 -62 23 0 28 28 10 55 -19 29 -56 34 -56 7z
m54 -17 c7 -20 -23 -32 -35 -14 -13 21 -11 29 10 29 10 0 22 -7 25 -15z"/>
<path d="M710 281 c0 -5 6 -14 14 -20 11 -9 16 -9 21 0 4 6 1 15 -6 20 -18 11
-29 11 -29 0z"/>
<path d="M674 238 c-14 -17 -15 -20 -2 -9 19 14 42 6 32 -12 -5 -9 -4 -9 6 0
13 12 7 43 -8 43 -5 0 -17 -10 -28 -22z"/>
</g>
</svg>
