<svg version="1.0" xmlns="http://www.w3.org/2000/svg"
 width="100.000000pt" height="100.000000pt" viewBox="0 0 100.000000 100.000000"
 preserveAspectRatio="xMidYMid meet">

<g transform="translate(0.000000,100.000000) scale(0.100000,-0.100000)"
fill="#461413" stroke="none">
<path d="M458 903 c-9 -10 -100 -165 -203 -345 -163 -285 -185 -329 -176 -347
12 -21 16 -21 412 -21 l399 0 9 23 c10 25 30 295 23 314 -8 23 -416 393 -432
393 -9 0 -24 -8 -32 -17z m81 -125 c22 -40 47 -84 56 -98 55 -92 245 -426 245
-432 0 -4 -158 -8 -351 -8 l-350 0 7 23 c3 12 11 29 18 37 11 15 16 23 58 99
98 175 262 451 268 451 5 0 26 -33 49 -72z m31 20 c0 -6 -7 -5 -15 2 -8 7 -15
17 -15 22 0 6 7 5 15 -2 8 -7 15 -17 15 -22z m44 -69 c15 -22 30 -38 33 -35 3
2 -5 19 -18 37 -41 58 9 15 203 -172 54 -51 55 -57 42 -212 -6 -64 -9 -75 -21
-65 -10 8 -11 14 -3 22 5 5 10 39 10 74 0 63 0 64 -24 58 -18 -4 -26 -1 -29
11 -3 10 -5 3 -6 -14 0 -18 2 -33 7 -33 7 0 33 -72 28 -78 -4 -3 -256 432
-256 441 0 14 8 6 34 -34z m236 -341 c-1 -28 -2 -30 -11 -15 -6 10 -8 25 -5
33 9 24 16 16 16 -18z"/>
<path d="M471 770 c-19 -16 -32 -33 -28 -37 4 -3 13 -1 19 5 22 22 28 12 28
-48 0 -33 4 -60 10 -60 6 0 10 35 10 85 0 47 -1 85 -2 85 -2 -1 -18 -14 -37
-30z"/>
<path d="M320 389 c12 -16 20 -32 17 -35 -3 -3 -23 0 -46 6 -51 13 -81 0 -81
-35 0 -30 35 -68 57 -63 29 5 26 26 -4 30 -20 2 -28 9 -28 23 0 18 6 20 73 17
39 -2 72 0 72 4 0 17 -54 84 -67 84 -11 0 -9 -8 7 -31z"/>
<path d="M692 375 c-16 -20 -26 -25 -43 -20 -16 5 -20 4 -15 -6 3 -8 9 -22 12
-32 4 -10 12 -16 18 -14 6 3 30 -6 54 -20 23 -13 47 -21 52 -18 11 7 -31 127
-47 132 -6 2 -20 -8 -31 -22z m46 -47 c13 -32 10 -34 -23 -12 -21 13 -23 19
-14 36 12 22 19 17 37 -24z"/>
</g>
</svg>
