<svg version="1.0" xmlns="http://www.w3.org/2000/svg"
 width="100.000000pt" height="100.000000pt" viewBox="0 0 100.000000 100.000000"
 preserveAspectRatio="xMidYMid meet">

<g transform="translate(0.000000,100.000000) scale(0.100000,-0.100000)"
fill="#461413" stroke="none">
<path d="M325 839 c-27 -11 -93 -36 -145 -56 -52 -19 -101 -40 -108 -46 -17
-13 -18 -557 0 -575 9 -9 84 -12 278 -12 l265 1 145 64 145 64 3 277 c2 196
-1 281 -9 290 -9 11 -62 14 -268 14 -232 -1 -261 -3 -306 -21z m489 -27 c-5
-5 -29 -17 -54 -27 -25 -10 -65 -28 -90 -39 -39 -18 -69 -21 -240 -24 -107 -2
-215 -2 -240 0 l-45 3 45 17 c25 9 70 26 100 38 30 12 66 25 80 30 32 11 457
13 444 2z m56 -245 c0 -210 -2 -235 -17 -249 -18 -16 -198 -98 -214 -98 -15 0
-11 477 4 487 22 14 202 92 215 92 9 1 12 -52 12 -232z m-282 121 c17 -17 17
-459 0 -476 -13 -13 -431 -18 -462 -6 -14 5 -16 36 -16 244 0 181 3 240 13
243 6 3 111 6 233 6 159 1 223 -2 232 -11z"/>
<path d="M455 785 l-30 -14 43 -1 c26 0 41 -4 37 -10 -7 -11 15 -13 39 -4 23
9 10 24 -22 26 -15 1 2 4 38 8 l65 7 -70 0 c-40 1 -83 -4 -100 -12z"/>
<path d="M380 750 c-12 -8 -9 -10 13 -10 16 0 26 4 22 10 -8 12 -16 12 -35 0z"/>
<path d="M458 743 c6 -2 18 -2 25 0 6 3 1 5 -13 5 -14 0 -19 -2 -12 -5z"/>
<path d="M736 543 c-44 -108 -46 -126 -10 -113 36 14 44 13 44 -10 0 -11 5
-20 10 -20 6 0 10 11 10 24 0 13 7 29 15 36 8 7 15 16 15 21 0 5 -7 9 -15 9
-12 0 -15 14 -15 70 0 39 -4 70 -9 70 -4 0 -25 -39 -45 -87z m17 -70 c-26 -20
-29 1 -7 50 l19 42 3 -40 c3 -29 -1 -43 -15 -52z"/>
<path d="M314 552 c-44 -29 -55 -133 -20 -187 23 -35 97 -36 120 -3 21 29 20
67 0 97 -14 20 -23 23 -59 19 -41 -5 -42 -5 -36 20 11 41 36 50 64 24 13 -12
26 -22 30 -22 12 0 8 35 -5 48 -13 13 -76 16 -94 4z m70 -113 c26 -38 -15 -98
-48 -70 -22 18 -20 67 2 80 24 15 29 14 46 -10z"/>
</g>
</svg>
