<svg version="1.0" xmlns="http://www.w3.org/2000/svg"
 width="100.000000pt" height="100.000000pt" viewBox="0 0 100.000000 100.000000"
 preserveAspectRatio="xMidYMid meet">

<g transform="translate(0.000000,100.000000) scale(0.100000,-0.100000)"
fill="#461413" stroke="none">
<path d="M421 908 c-175 -195 -331 -382 -331 -396 0 -9 15 -33 33 -52 17 -19
79 -87 137 -150 188 -206 192 -210 216 -210 14 0 44 23 85 68 35 38 133 141
217 230 83 88 152 166 152 171 0 13 -8 20 -248 220 -107 89 -200 161 -209 161
-8 0 -31 -19 -52 -42z m166 -203 c55 -88 103 -166 107 -172 6 -10 -51 -13
-268 -13 -152 0 -276 3 -276 8 0 7 106 131 247 290 53 60 68 71 78 60 6 -7 57
-85 112 -173z m23 66 c-8 -2 -18 -8 -21 -13 -4 -5 -17 8 -30 29 -12 21 -30 49
-38 63 -11 17 3 9 44 -25 41 -34 56 -51 45 -54z m39 -35 c6 -8 10 -20 9 -27
-2 -7 6 -15 17 -17 26 -5 66 -42 59 -54 -3 -5 -17 -2 -30 6 -29 20 -40 20 -25
2 7 -8 26 -19 42 -25 25 -8 31 -7 36 6 5 11 -6 27 -32 50 -21 18 -36 35 -34
38 8 7 170 -136 164 -145 -6 -10 -92 -40 -116 -40 -10 0 -40 36 -78 96 -63 99
-69 110 -49 98 8 -5 9 -2 5 9 -8 21 16 23 32 3z m160 -243 c-97 -108 -257
-273 -263 -273 -4 0 11 24 32 53 21 28 59 84 84 122 55 86 80 109 138 129 25
8 47 15 49 16 2 0 -16 -21 -40 -47z m-116 0 c7 -12 -216 -338 -231 -338 -13 0
-312 322 -312 336 0 11 537 12 543 2z"/>
<path d="M385 758 c-32 -104 -30 -118 15 -91 24 14 31 14 44 4 19 -16 21 -52
4 -69 -18 -18 -43 -15 -63 8 -17 19 -35 19 -35 -1 0 -18 40 -49 64 -49 31 0
73 37 81 72 9 37 -26 72 -66 66 -30 -5 -33 -1 -23 26 4 11 19 16 50 16 32 0
44 4 44 15 0 20 -108 22 -115 3z"/>
<path d="M376 437 c-22 -17 -24 -61 -3 -85 10 -11 13 -27 10 -45 -8 -39 20
-67 67 -67 57 0 80 39 44 75 -13 12 -14 19 -5 28 16 16 13 52 -6 76 -23 27
-81 37 -107 18z m72 -29 c7 -7 12 -23 12 -36 0 -19 -4 -23 -26 -20 -31 3 -50
28 -41 52 7 19 38 21 55 4z m22 -103 c10 -12 10 -18 0 -30 -7 -8 -18 -15 -26
-15 -16 0 -37 37 -29 50 9 15 41 12 55 -5z"/>
</g>
</svg>
